<svg width="24" height="24" fill="none" xmlns="http://www.w3.org/2000/svg"><path fill-rule="evenodd" clip-rule="evenodd" d="M13 1a1 1 0 1 0-2 0 1 1 0 0 0 2 0Zm3 11a4 4 0 1 1-8 0 4 4 0 0 1 8 0Zm-4 10a1 1 0 1 1 0 2 1 1 0 0 1 0-2Zm11-9a1 1 0 1 0 0-2 1 1 0 0 0 0 2ZM2 12a1 1 0 1 1-2 0 1 1 0 0 1 2 0Zm17.07 8.486a1 1 0 1 0 1.415-1.415 1 1 0 0 0-1.415 1.415ZM4.93 4.929a1 1 0 1 1-1.414-1.414A1 1 0 0 1 4.93 4.929Zm15.555 0a1 1 0 1 0-1.415-1.413 1 1 0 0 0 1.415 1.414ZM4.93 19.07a1 1 0 1 1-1.414 1.415A1 1 0 0 1 4.93 19.07Z" fill="#fff"/></svg>