<svg width="150" height="30" viewBox="0 0 150 30" fill="none" xmlns="http://www.w3.org/2000/svg"><path d="M56.968 17.5 60.95 6.828h2.672L67.528 17.5h-2.64l-.817-2.448h-3.76l-.816 2.448h-2.527Zm3.903-4.32h2.624L62.2 9.148 60.87 13.18Zm15.625.848 1.648 1.504a5.24 5.24 0 0 1-1.152 1.12 5.812 5.812 0 0 1-1.552.816 5.552 5.552 0 0 1-1.856.304c-1.077 0-2.032-.24-2.864-.72a5.197 5.197 0 0 1-1.936-1.968c-.458-.843-.688-1.803-.688-2.88 0-.79.134-1.525.4-2.208a5.497 5.497 0 0 1 1.12-1.808 5.253 5.253 0 0 1 1.744-1.2c.683-.288 1.435-.432 2.256-.432.982 0 1.846.181 2.592.544a4.88 4.88 0 0 1 1.856 1.568l-1.648 1.584A3.866 3.866 0 0 0 75.28 9.18c-.437-.277-.96-.416-1.568-.416-.64 0-1.194.155-1.664.464a3.044 3.044 0 0 0-1.072 1.216 3.874 3.874 0 0 0-.368 1.696c0 .63.123 1.195.368 1.696a3.07 3.07 0 0 0 1.072 1.2c.459.288.998.432 1.616.432.512 0 .939-.07 1.28-.208.342-.139.63-.315.864-.528.246-.224.475-.459.688-.704Zm3.051 3.472.496-10.672h2.288l2.784 5.008 2.72-5.008h2.304l.496 10.672h-2.416l-.304-6.976-2.208 4.16h-1.248l-2.336-4.112-.272 6.928h-2.304Zm13.309 0V6.828h7.295V8.94h-4.88v2.08h3.793v2.048h-3.792v2.304h5.231V17.5h-7.647Zm20.795-3.472 1.648 1.504a5.215 5.215 0 0 1-1.152 1.12 5.803 5.803 0 0 1-1.552.816 5.549 5.549 0 0 1-1.856.304c-1.077 0-2.032-.24-2.864-.72a5.204 5.204 0 0 1-1.936-1.968c-.458-.843-.688-1.803-.688-2.88 0-.79.134-1.525.4-2.208a5.502 5.502 0 0 1 1.12-1.808 5.256 5.256 0 0 1 1.744-1.2c.683-.288 1.435-.432 2.256-.432.982 0 1.846.181 2.592.544a4.873 4.873 0 0 1 1.856 1.568l-1.648 1.584a3.859 3.859 0 0 0-1.136-1.072c-.437-.277-.96-.416-1.568-.416-.64 0-1.194.155-1.664.464a3.048 3.048 0 0 0-1.072 1.216 3.878 3.878 0 0 0-.368 1.696c0 .63.123 1.195.368 1.696.256.501.614.901 1.072 1.2.459.288.998.432 1.616.432.512 0 .939-.07 1.28-.208.342-.139.63-.315.864-.528.246-.224.475-.459.688-.704Zm8.082 3.744c-.79 0-1.52-.139-2.192-.416a5.617 5.617 0 0 1-1.776-1.2 5.467 5.467 0 0 1-1.168-1.792 5.798 5.798 0 0 1-.416-2.208c0-.8.138-1.536.416-2.208a5.467 5.467 0 0 1 1.168-1.792 5.223 5.223 0 0 1 1.76-1.184 5.617 5.617 0 0 1 2.208-.432c.789 0 1.52.144 2.192.432a5.233 5.233 0 0 1 1.76 1.184 5.37 5.37 0 0 1 1.184 1.792c.277.672.416 1.408.416 2.208 0 .79-.139 1.525-.416 2.208a5.369 5.369 0 0 1-1.184 1.792 5.438 5.438 0 0 1-1.76 1.2 5.692 5.692 0 0 1-2.192.416Zm0-2.272c.629 0 1.168-.155 1.616-.464.458-.31.805-.72 1.04-1.232a3.842 3.842 0 0 0 .368-1.68c0-.608-.123-1.163-.368-1.664a2.827 2.827 0 0 0-1.04-1.216c-.448-.31-.987-.464-1.616-.464-.63 0-1.174.155-1.632.464a2.968 2.968 0 0 0-1.04 1.216 3.725 3.725 0 0 0-.368 1.664c0 .608.122 1.168.368 1.68.245.512.592.923 1.04 1.232.458.31 1.002.464 1.632.464Zm7.543 2V6.828h3.968c.832 0 1.525.155 2.08.464.555.299.971.704 1.248 1.216.277.501.416 1.056.416 1.664 0 .683-.155 1.285-.464 1.808a3.275 3.275 0 0 1-1.28 1.248l2.368 4.272h-2.656l-1.984-3.92h-1.344v3.92h-2.352Zm2.352-5.856h1.488c.448 0 .8-.133 1.056-.4s.384-.603.384-1.008c0-.437-.133-.784-.4-1.04-.256-.256-.603-.384-1.04-.384h-1.488v2.832Zm7.687 5.856V6.828h3.888c.885 0 1.6.165 2.144.496.555.32.96.741 1.216 1.264s.384 1.083.384 1.68c0 .757-.171 1.397-.512 1.92a3.308 3.308 0 0 1-1.344 1.168 4.118 4.118 0 0 1-1.776.384h-1.648v3.76h-2.352Zm2.352-5.712h1.408c.437 0 .789-.139 1.056-.416.267-.277.4-.63.4-1.056 0-.448-.133-.81-.4-1.088-.267-.288-.624-.432-1.072-.432h-1.392v2.992Zm4.372 5.712v-2.544h2.608V17.5h-2.608ZM1.001 28.456l17.61-27.162a1 1 0 0 1 1.678 0L37.9 28.456A1 1 0 0 1 37.062 30H1.84A1 1 0 0 1 1 28.456Z" fill="#fff"/></svg>
