<svg width="831" height="260" viewBox="0 0 831 260" fill="none" xmlns="http://www.w3.org/2000/svg">
    <rect x="1.5" y=".5" width="819" height="259" rx="5.5" fill="#000" stroke="#262626"/><path d="M27 1v258M52.6 1v258M78.2 1v258M103.801 1v258M129.4 1v258M155 1v258M180.6 1v258M206.199 1v258M231.801 1v258M257.4 1v258M283 1v258M308.6 1v258M334.199 1v258M359.801 1v258M385.4 1v258M411 1v258M436.6 1v258M462.199 1v258M487.801 1v258M513.4 1v258M539 1v258M564.6 1v258M590.201 1v258M615.801 1v258M641.4 1v258M667 1v258M692.6 1v258M718.201 1v258M743.801 1v258M769.4 1v258M795 1v258" stroke="#1A1A1A" stroke-dasharray="3 3"/><mask id="b" style="mask-type:alpha" maskUnits="userSpaceOnUse" x="1" y="0" width="820" height="260"><rect x="1" width="820" height="260" rx="6" fill="url(#a)"/></mask><g mask="url(#b)"><g filter="url(#c)"><path d="m1 233 24.475-9.584a2.001 2.001 0 0 1 1.962.288l22.906 17.938a2 2 0 0 0 2.919-.498l23.168-36.288a2 2 0 0 1 2.92-.498l22.07 17.284a2 2 0 0 0 2.919-.498l23.168-36.288a2 2 0 0 1 2.919-.498l22.293 17.458a2 2 0 0 0 2.756-.278l24.034-28.232c.172-.202.302-.436.382-.688l23.399-73.297c.602-1.887 3.288-1.844 3.829.063l23.456 82.661a2.001 2.001 0 0 0 1.195 1.317l23.084 9.039a2 2 0 0 0 2.415-.786l23.469-36.759a2 2 0 0 1 2.919-.498l23.261 18.217c.352.275.786.425 1.233.425h23.925c.586 0 1.143.257 1.523.704l24.34 28.592c.38.447.937.704 1.523.704h23.215c.841 0 1.591-.525 1.879-1.315l24.357-66.762a2.001 2.001 0 0 1 2.609-1.177l22.101 8.655a2 2 0 0 0 2.415-.786l22.974-35.983a2 2 0 0 1 3.368-.005l25.28 39.344c.221.344.543.613.921.768l24.325 10.016c.386.159.813.194 1.219.098l23.564-5.544a2 2 0 0 1 2.09.79l24.123 34.057c.375.529.984.844 1.632.844h24.043c.279 0 .555-.058.809-.171l24.986-11.051c.407-.18.742-.491.953-.883l24.862-46.313c.203-.378.523-.681.911-.863l24.086-11.335a2.001 2.001 0 0 1 1.644-.027l23.057 9.946a2 2 0 0 0 2.512-.816l22.576-38.068c.838-1.414 2.929-1.269 3.564.247l22.822 54.422c.654 1.559 2.828 1.654 3.615.157l22.964-43.676a2 2 0 0 1 1.77-1.069H795" stroke="url(#d)" stroke-width="6" stroke-linejoin="round"/></g><g filter="url(#e)"><path d="m1 233 24.475-9.584a2.001 2.001 0 0 1 1.962.288l22.906 17.938a2 2 0 0 0 2.919-.498l23.168-36.288a2 2 0 0 1 2.92-.498l22.07 17.284a2 2 0 0 0 2.919-.498l23.168-36.288a2 2 0 0 1 2.919-.498l22.293 17.458a2 2 0 0 0 2.756-.278l24.034-28.232c.172-.202.302-.436.382-.688l23.399-73.297c.602-1.887 3.288-1.844 3.829.063l23.456 82.661a2.001 2.001 0 0 0 1.195 1.317l23.084 9.039a2 2 0 0 0 2.415-.786l23.469-36.759a2 2 0 0 1 2.919-.498l23.261 18.217c.352.275.786.425 1.233.425h23.925c.586 0 1.143.257 1.523.704l24.34 28.592c.38.447.937.704 1.523.704h23.215c.841 0 1.591-.525 1.879-1.315l24.357-66.762a2.001 2.001 0 0 1 2.609-1.177l22.101 8.655a2 2 0 0 0 2.415-.786l22.974-35.983a2 2 0 0 1 3.368-.005l25.28 39.344c.221.344.543.613.921.768l24.325 10.016c.386.159.813.194 1.219.098l23.564-5.544a2 2 0 0 1 2.09.79l24.123 34.057c.375.529.984.844 1.632.844h24.043c.279 0 .555-.058.809-.171l24.986-11.051c.407-.18.742-.491.953-.883l24.862-46.313c.203-.378.523-.681.911-.863l24.086-11.335a2.001 2.001 0 0 1 1.644-.027l23.057 9.946a2 2 0 0 0 2.512-.816l22.576-38.068c.838-1.414 2.929-1.269 3.564.247l22.822 54.422c.654 1.559 2.828 1.654 3.615.157l22.964-43.676a2 2 0 0 1 1.77-1.069H795" stroke="url(#f)" stroke-width="4" stroke-linejoin="round"/></g></g><path d="m1 233 24.475-9.584a2.001 2.001 0 0 1 1.962.288l22.906 17.938a2 2 0 0 0 2.919-.498l23.168-36.288a2 2 0 0 1 2.92-.498l22.07 17.284a2 2 0 0 0 2.919-.498l23.168-36.288a2 2 0 0 1 2.919-.498l22.293 17.458a2 2 0 0 0 2.756-.278l24.034-28.232c.172-.202.302-.436.382-.688l23.399-73.297c.602-1.887 3.288-1.844 3.829.063l23.456 82.661a2.001 2.001 0 0 0 1.195 1.317l23.084 9.039a2 2 0 0 0 2.415-.786l23.469-36.759a2 2 0 0 1 2.919-.498l23.261 18.217c.352.275.786.425 1.233.425h23.925c.586 0 1.143.257 1.523.704l24.34 28.592c.38.447.937.704 1.523.704h23.215c.841 0 1.591-.525 1.879-1.315l24.357-66.762a2.001 2.001 0 0 1 2.609-1.177l22.101 8.655a2 2 0 0 0 2.415-.786l22.974-35.983a2 2 0 0 1 3.368-.005l25.28 39.344c.221.344.543.613.921.768l24.325 10.016c.386.159.813.194 1.219.098l23.564-5.544a2 2 0 0 1 2.09.79l24.123 34.057c.375.529.984.844 1.632.844h24.043c.279 0 .555-.058.809-.171l24.986-11.051c.407-.18.742-.491.953-.883l24.862-46.313c.203-.378.523-.681.911-.863l24.086-11.335a2.001 2.001 0 0 1 1.644-.027l23.057 9.946a2 2 0 0 0 2.512-.816l22.576-38.068c.838-1.414 2.929-1.269 3.564.247l22.822 54.422c.654 1.559 2.828 1.654 3.615.157l22.964-43.676a2 2 0 0 1 1.77-1.069H795" stroke="url(#g)" stroke-width="2" stroke-linejoin="round"/><path stroke="#00E599" stroke-width="2" stroke-linecap="round" stroke-dasharray="3 5" d="M3 111h827"/><rect x="21" y="20" width="172" height="14" rx="7" fill="#262626"/><defs><linearGradient id="a" x1="795" y1="98.5" x2="1" y2="98.5" gradientUnits="userSpaceOnUse"><stop/><stop offset=".395" stop-opacity=".4"/></linearGradient><linearGradient id="d" x1="266" y1="259" x2="266" y2="1" gradientUnits="userSpaceOnUse"><stop offset=".211" stop-color="#FB3"/><stop offset=".671" stop-color="#E300BD"/><stop offset=".926" stop-color="#FF006A"/></linearGradient><linearGradient id="f" x1="266" y1="259" x2="266" y2="1" gradientUnits="userSpaceOnUse"><stop offset=".211" stop-color="#FB3"/><stop offset=".671" stop-color="#E300BD"/><stop offset=".926" stop-color="#FF006A"/></linearGradient><linearGradient id="g" x1="266" y1="259" x2="266" y2="1" gradientUnits="userSpaceOnUse"><stop offset=".211" stop-color="#FB3"/><stop offset=".671" stop-color="#E300BD"/><stop offset=".926" stop-color="#FF006A"/></linearGradient><filter id="c" x="-20.094" y="62.44" width="835.094" height="202.629" filterUnits="userSpaceOnUse" color-interpolation-filters="sRGB"><feFlood flood-opacity="0" result="BackgroundImageFix"/><feBlend in="SourceGraphic" in2="BackgroundImageFix" result="shape"/><feGaussianBlur stdDeviation="10" result="effect1_foregroundBlur_7505_12768"/></filter><filter id="e" x="-5.729" y="77.439" width="806.729" height="172.629" filterUnits="userSpaceOnUse" color-interpolation-filters="sRGB"><feFlood flood-opacity="0" result="BackgroundImageFix"/><feBlend in="SourceGraphic" in2="BackgroundImageFix" result="shape"/><feGaussianBlur stdDeviation="3" result="effect1_foregroundBlur_7505_12768"/></filter></defs></svg>
