<svg width="400" height="156" fill="none" xmlns="http://www.w3.org/2000/svg"><rect x=".5" y=".5" width="399" height="155" rx="5.5" fill="#000" stroke="#262626"/><rect x="72" y="66" width="256" height="6" rx="3" fill="#1A1A1A"/><rect x="72" y="66" width="187" height="6" rx="3" fill="url(#a)"/><rect x="20" y="66" width="42" height="6" rx="3" fill="#262626"/><rect x="338" y="66" width="42" height="6" rx="3" fill="#262626"/><rect x="72" y="87" width="256" height="6" rx="3" fill="#1A1A1A"/><rect x="72" y="87" width="168" height="6" rx="3" fill="url(#b)"/><rect x="20" y="87" width="42" height="6" rx="3" fill="#262626"/><rect x="338" y="87" width="42" height="6" rx="3" fill="#262626"/><rect x="72" y="108" width="256" height="6" rx="3" fill="#1A1A1A"/><rect x="72" y="108" width="91" height="6" rx="3" fill="url(#c)"/><rect x="20" y="108" width="42" height="6" rx="3" fill="#262626"/><rect x="338" y="108" width="42" height="6" rx="3" fill="#262626"/><rect x="72" y="129" width="256" height="6" rx="3" fill="#1A1A1A"/><rect x="72" y="129" width="110" height="6" rx="3" fill="url(#d)"/><rect x="20" y="129" width="42" height="6" rx="3" fill="#262626"/><rect x="338" y="129" width="42" height="6" rx="3" fill="#262626"/><rect x="20" y="20" width="130" height="14" rx="7" fill="#262626"/><defs><linearGradient id="a" x1="72" y1="69" x2="79.549" y2="25.692" gradientUnits="userSpaceOnUse"><stop offset=".211" stop-color="gray"/><stop offset=".552" stop-color="#666"/><stop offset=".926" stop-color="#4D4D4D"/></linearGradient><linearGradient id="b" x1="72" y1="90" x2="81.288" y2="42.131" gradientUnits="userSpaceOnUse"><stop offset=".211" stop-color="gray"/><stop offset=".552" stop-color="#666"/><stop offset=".926" stop-color="#4D4D4D"/></linearGradient><linearGradient id="c" x1="72" y1="111" x2="101.112" y2="29.728" gradientUnits="userSpaceOnUse"><stop offset=".211" stop-color="gray"/><stop offset=".552" stop-color="#666"/><stop offset=".926" stop-color="#4D4D4D"/></linearGradient><linearGradient id="d" x1="72" y1="132" x2="92.665" y2="62.263" gradientUnits="userSpaceOnUse"><stop offset=".211" stop-color="gray"/><stop offset=".552" stop-color="#666"/><stop offset=".926" stop-color="#4D4D4D"/></linearGradient></defs></svg>