<svg width="400" height="156" fill="none" xmlns="http://www.w3.org/2000/svg"><rect x=".5" y=".5" width="399" height="155" rx="5.5" fill="#000" stroke="#262626"/><path fill="#1A1A1A" d="M200 20h1v116h-1z"/><rect x="40" y="110" width="120" height="6" rx="3" fill="#1A1A1A"/><rect x="40" y="110" width="26.2" height="6" rx="3" fill="url(#a)"/><rect x="40" y="94" width="98" height="6" rx="3" fill="#262626"/><path d="M41.728 50.248c1.62-1.26 3.564-2.088 5.832-2.088 3.456 0 5.904 2.448 5.904 5.976 0 4.68-3.888 8.928-12.924 18.864h15.768v-1.476h-12.42c6.804-7.56 11.232-12.132 11.232-17.352 0-4.428-3.168-7.524-7.56-7.524-2.124 0-4.032.684-5.832 1.944v1.656Zm19.799 21.348c1.764 1.26 3.852 1.836 5.976 1.836 5.04 0 8.784-3.168 8.784-8.1 0-4.932-3.816-8.316-8.532-8.316-2.052 0-3.204.396-3.816.648l.396-9.108h10.188V47.08h-11.7l-.54 12.636c.576-.288 2.376-1.188 5.4-1.188 3.816 0 6.948 2.772 6.948 6.804s-3.024 6.588-7.128 6.588c-2.448 0-4.248-.72-5.976-2.016v1.692Zm18.356-18.684c0 3.42 2.628 6.228 5.868 6.228s5.868-2.808 5.868-6.228c0-3.456-2.628-6.264-5.868-6.264s-5.868 2.808-5.868 6.264Zm1.548 0c0-2.664 1.944-4.86 4.32-4.86 2.412 0 4.356 2.196 4.356 4.86s-1.944 4.824-4.356 4.824c-2.376 0-4.32-2.16-4.32-4.824Zm12.852 14.292c0 3.42 2.628 6.228 5.868 6.228s5.868-2.808 5.868-6.228c0-3.456-2.628-6.264-5.868-6.264s-5.868 2.808-5.868 6.264Zm1.548 0c0-2.664 1.944-4.86 4.32-4.86 2.412 0 4.356 2.196 4.356 4.86s-1.944 4.824-4.356 4.824c-2.376 0-4.32-2.16-4.32-4.824ZM82.835 73h1.764l18.468-25.92h-1.764L82.835 73Z" fill="#fff"/><circle cx="29" cy="61" r="3" fill="#666"/><rect x="240" y="110" width="120" height="6" rx="3" fill="#1A1A1A"/><rect x="240" y="110" width="86.4" height="6" rx="3" fill="url(#b)"/><rect x="240" y="94" width="98" height="6" rx="3" fill="#262626"/><path d="M244.572 73 256.2 47.08h-15.66v1.476h13.248L242.772 73h1.8Zm15.894-22.752c1.62-1.26 3.564-2.088 5.832-2.088 3.456 0 5.904 2.448 5.904 5.976 0 4.68-3.888 8.928-12.924 18.864h15.768v-1.476h-12.42c6.804-7.56 11.232-12.132 11.232-17.352 0-4.428-3.168-7.524-7.56-7.524-2.124 0-4.032.684-5.832 1.944v1.656Zm18.538 2.664c0 3.42 2.628 6.228 5.868 6.228s5.868-2.808 5.868-6.228c0-3.456-2.628-6.264-5.868-6.264s-5.868 2.808-5.868 6.264Zm1.548 0c0-2.664 1.944-4.86 4.32-4.86 2.412 0 4.356 2.196 4.356 4.86s-1.944 4.824-4.356 4.824c-2.376 0-4.32-2.16-4.32-4.824Zm12.852 14.292c0 3.42 2.628 6.228 5.868 6.228s5.868-2.808 5.868-6.228c0-3.456-2.628-6.264-5.868-6.264s-5.868 2.808-5.868 6.264Zm1.548 0c0-2.664 1.944-4.86 4.32-4.86 2.412 0 4.356 2.196 4.356 4.86s-1.944 4.824-4.356 4.824c-2.376 0-4.32-2.16-4.32-4.824ZM281.956 73h1.764l18.468-25.92h-1.764L281.956 73Z" fill="#fff"/><circle cx="229" cy="61" r="3" fill="#4D4D4D"/><defs><linearGradient id="a" x1="40" y1="113" x2="112.902" y2="54.404" gradientUnits="userSpaceOnUse"><stop offset=".211" stop-color="gray"/><stop offset=".552" stop-color="#666"/><stop offset=".926" stop-color="#4D4D4D"/></linearGradient><linearGradient id="b" x1="240" y1="113" x2="254.952" y2="73.368" gradientUnits="userSpaceOnUse"><stop offset=".211" stop-color="gray"/><stop offset=".552" stop-color="#666"/><stop offset=".926" stop-color="#4D4D4D"/></linearGradient></defs></svg>