<svg width="400" height="352" viewBox="0 0 400 352" fill="none" xmlns="http://www.w3.org/2000/svg">
    <rect x=".5" y=".5" width="399" height="351" rx="5.5" fill="#000" stroke="#262626"/>
    <rect x="20" y="20" width="130" height="14" rx="7" fill="#262626"/>
    <rect x="20" y="318" width="106" height="14" rx="7" fill="#262626"/>
    <rect x="147" y="318" width="106" height="14" rx="7" fill="#262626"/>
    <rect x="274" y="318" width="106" height="14" rx="7" fill="#262626"/>
    <rect x="167" y="219" width="67" height="14" rx="7" fill="#262626"/>
    <circle cx="200" cy="176" r="99" stroke="#1A1A1A" stroke-width="14"/>
    <path d="M199.741 77C254.56 77 299 121.324 299 176s-44.44 99-99.259 99c-16.496 0-32.053-4.014-45.741-11.115"
          stroke="url(#a)" stroke-width="14" stroke-linecap="round"/>
    <path d="M152.244 166.804c-2.64 0-4.4 1.1-5.28 1.936 2.068-3.608 6.248-9.108 12.144-13.42h-4.62c-5.588 4.18-13.112 14.036-13.112 21.604 0 6.248 4.532 10.604 10.604 10.604 6.116 0 10.648-4.444 10.648-10.428 0-5.72-4.356-10.296-10.384-10.296Zm-.264 17.82c-4.4 0-7.48-3.124-7.48-7.7 0-4.136 3.08-7.348 7.48-7.348s7.436 3.212 7.436 7.524c0 4.356-3.036 7.524-7.436 7.524Zm24.228-13.728c-3.828 1.584-7.084 4.62-7.084 8.624 0 4.62 4.18 8.052 9.9 8.052 5.764 0 9.9-3.432 9.9-8.052 0-4.004-3.3-6.996-7.04-8.624 3.256-1.364 6.336-4.268 6.336-8.228 0-4.532-3.916-7.92-9.196-7.92-5.236 0-9.152 3.388-9.152 7.92 0 3.96 3.08 6.864 6.336 8.228Zm-3.828 8.36c0-2.904 2.772-5.456 6.644-6.952 3.916 1.496 6.644 4.048 6.644 6.952 0 3.08-2.816 5.324-6.644 5.324-3.784 0-6.644-2.244-6.644-5.324Zm.792-16.368c0-2.948 2.464-5.192 5.852-5.192 3.388 0 5.896 2.244 5.896 5.192 0 3.036-2.42 5.06-5.896 6.512-3.476-1.452-5.852-3.476-5.852-6.512Zm25.877 21.56h-3.388l-2.728 9.152h2.596l3.52-9.152Zm18.541-21.076c0 3.564-3.432 5.94-7.876 5.94h-1.232v2.772h.836c5.544 0 8.8 2.42 8.8 6.6 0 3.344-2.816 5.808-6.996 5.808-3.696 0-5.896-1.056-7.524-1.936v3.168c1.672.924 3.872 1.804 7.7 1.804 6.072 0 10.296-3.608 10.296-8.624 0-4.312-2.904-7.26-6.468-8.272 3.344-1.1 5.94-3.828 5.94-7.524 0-5.016-3.828-8.316-9.768-8.316-2.816 0-5.544.792-7.128 1.584v3.168c1.54-.792 4.136-1.716 6.82-1.716 3.916 0 6.6 2.068 6.6 5.544Zm8.78-.88c0 4.18 3.212 7.612 7.304 7.612 4.092 0 7.348-3.432 7.348-7.612 0-4.268-3.256-7.7-7.348-7.7-4.092 0-7.304 3.432-7.304 7.7Zm2.508 0c0-3.036 2.156-5.368 4.796-5.368 2.684 0 4.84 2.332 4.84 5.368 0 2.992-2.156 5.324-4.84 5.324-2.64 0-4.796-2.332-4.796-5.324Zm15.004 17.38c0 4.224 3.212 7.656 7.348 7.656 4.092 0 7.304-3.432 7.304-7.656s-3.212-7.656-7.304-7.656c-4.136 0-7.348 3.432-7.348 7.656Zm2.552 0c0-2.992 2.112-5.368 4.796-5.368 2.64 0 4.796 2.376 4.796 5.368 0 3.036-2.156 5.324-4.796 5.324-2.684 0-4.796-2.288-4.796-5.324ZM229.846 187h2.684l22.572-31.68h-2.684L229.846 187Z"
          fill="#fff"/>
    <defs>
        <radialGradient id="a" cx="0" cy="0" r="1" gradientUnits="userSpaceOnUse"
                        gradientTransform="matrix(0 -99.0002 99.2594 0 199.742 176)">
            <stop stop-color="gray"/>
            <stop offset=".696" stop-color="#666"/>
            <stop offset=".967" stop-color="#4D4D4D"/>
        </radialGradient>
    </defs>
</svg>
