<svg width="24" height="381" fill="none" xmlns="http://www.w3.org/2000/svg"><g clip-path="url(#a)"><path d="M19 358.363H5c-.796 0-1.559.295-2.121.819A2.701 2.701 0 0 0 2 361.158v19.098c0 .083.024.165.07.237a.49.49 0 0 0 .189.171.538.538 0 0 0 .508-.014L12 375.218l9.233 5.432c.08.047.172.072.267.071a.52.52 0 0 0 .354-.136.45.45 0 0 0 .146-.329v-19.098c0-.741-.316-1.452-.879-1.976a3.116 3.116 0 0 0-2.121-.819Z" fill="#4D4D4D"/></g><path d="M17 300.605c-.905 0-1.73.291-2.4.763.875 1.088 1.4 2.434 1.4 3.895v.932c0 .888-.193 1.735-.54 2.507.475.184.994.288 1.54.288 2.209 0 4-1.669 4-3.727v-.931c0-2.058-1.791-3.727-4-3.727ZM9 310.853c-2.761 0-5-2.086-5-4.658v-.932c0-2.572 2.239-4.658 5-4.658s5 2.086 5 4.658v.932c0 2.572-2.239 4.658-5 4.658ZM22.839 312.162c-1.284-.549-3.485-1.308-5.84-1.308-1.194 0-2.35.196-3.366.461.376.072.753.146 1.13.235 2.91.692 4.97 3.051 5.192 5.825H23c.552 0 1-.418 1-.932v-2.589c0-.728-.45-1.388-1.161-1.692ZM17 319.238H1c-.552 0-1-.417-1-.932v-.442c0-2.12 1.527-3.985 3.731-4.508 1.474-.35 3.29-.639 5.269-.639s3.795.289 5.269.639c2.204.523 3.731 2.388 3.731 4.508v.442c0 .515-.448.932-1 .932Z" fill="#4D4D4D"/><g clip-path="url(#b)" fill="#4D4D4D"><path d="M21 244.709H3c-.9 0-1.5.559-1.5 1.397v13.974c0 .839.6 1.398 1.5 1.398h18c.9 0 1.5-.559 1.5-1.398v-13.974c0-.838-.6-1.397-1.5-1.397ZM19.5 239.119h-15v2.795h15v-2.795Z"/></g><g clip-path="url(#c)" fill="#4D4D4D"><path d="M5 119.875H1a1 1 0 0 0-1 1v3.59a1 1 0 0 0 1 1h4a1 1 0 0 0 1-1v-3.59a1 1 0 0 0-1-1ZM14 119.875h-4a1 1 0 0 0-1 1v3.59a1 1 0 0 0 1 1h4a1 1 0 0 0 1-1v-3.59a1 1 0 0 0-1-1ZM23 119.875h-4a1 1 0 0 0-1 1v3.59a1 1 0 0 0 1 1h4a1 1 0 0 0 1-1v-3.59a1 1 0 0 0-1-1ZM5 128.26H1a1 1 0 0 0-1 1v3.589a1 1 0 0 0 1 1h4a1 1 0 0 0 1-1v-3.589a1 1 0 0 0-1-1ZM14 128.26h-4a1 1 0 0 0-1 1v3.589a1 1 0 0 0 1 1h4a1 1 0 0 0 1-1v-3.589a1 1 0 0 0-1-1ZM23 128.26h-4a1 1 0 0 0-1 1v3.589a1 1 0 0 0 1 1h4a1 1 0 0 0 1-1v-3.589a1 1 0 0 0-1-1ZM5 136.645H1a1 1 0 0 0-1 1v3.589a1 1 0 0 0 1 1h4a1 1 0 0 0 1-1v-3.589a1 1 0 0 0-1-1ZM14 136.645h-4a1 1 0 0 0-1 1v3.589a1 1 0 0 0 1 1h4a1 1 0 0 0 1-1v-3.589a1 1 0 0 0-1-1ZM23 136.645h-4a1 1 0 0 0-1 1v3.589a1 1 0 0 0 1 1h4a1 1 0 0 0 1-1v-3.589a1 1 0 0 0-1-1Z"/></g><g clip-path="url(#d)" fill="gray"><path d="M9 13.21H1.5c-.828 0-1.5-.627-1.5-1.398V2.03C0 1.26.672.633 1.5.633H9c.828 0 1.5.626 1.5 1.397v9.782c0 .771-.672 1.397-1.5 1.397ZM9 22.99H1.5c-.828 0-1.5-.625-1.5-1.396V17.4c0-.771.672-1.397 1.5-1.397H9c.828 0 1.5.626 1.5 1.397v4.192c0 .772-.672 1.398-1.5 1.398ZM22.5 9.017H15c-.828 0-1.5-.626-1.5-1.397V2.03c0-.771.672-1.397 1.5-1.397h7.5c.828 0 1.5.626 1.5 1.397v5.59c0 .771-.672 1.397-1.5 1.397ZM22.5 22.992H15c-.828 0-1.5-.626-1.5-1.398V13.21c0-.772.672-1.398 1.5-1.398h7.5c.828 0 1.5.627 1.5 1.398v8.384c0 .772-.672 1.398-1.5 1.398Z"/></g><g clip-path="url(#e)" fill="#4D4D4D"><path d="M3 60.254h-.5a1 1 0 0 0-1 1v3.59a1 1 0 0 0 1 1h1a1 1 0 0 0 1-1V63.12c3.837.298 7.332 1.713 10.111 3.906l-1.279 1.19a1 1 0 0 0 0 1.464l.653.61a1 1 0 0 0 1.364 0l1.382-1.288c2.353 2.588 3.873 5.845 4.192 9.42H19a1 1 0 0 0-1 1v.794a1 1 0 0 0 1 1h4a1 1 0 0 0 1-1v-.397c0-10.79-9.42-19.565-21-19.565Z"/><path d="M11.836 73.561a1 1 0 0 0 0-1.463l-.654-.61a1 1 0 0 0-1.364 0L6.43 74.647a4.724 4.724 0 0 0-1.929-.42c-2.486 0-4.5 1.877-4.5 4.193 0 2.315 2.014 4.192 4.5 4.192S9 80.734 9 78.42c0-.646-.17-1.25-.45-1.797l3.286-3.06Z"/></g><g clip-path="url(#f)" fill="#4D4D4D"><path d="M13.5 179.498h-3c-.9 0-1.5.559-1.5 1.397v19.564c0 .838.6 1.397 1.5 1.397h3c.9 0 1.5-.559 1.5-1.397v-19.564c0-.838-.6-1.397-1.5-1.397ZM4.5 193.473h-3c-.9 0-1.5.559-1.5 1.397v5.59c0 .838.6 1.397 1.5 1.397h3c.9 0 1.5-.559 1.5-1.397v-5.59c0-.838-.6-1.397-1.5-1.397ZM22.5 186.484h-3c-.9 0-1.5.559-1.5 1.398v12.576c0 .839.6 1.398 1.5 1.398h3c.9 0 1.5-.559 1.5-1.398v-12.576c0-.839-.6-1.398-1.5-1.398Z"/></g><defs><clipPath id="a"><path fill="#fff" transform="translate(0 358.363)" d="M0 0h24v22.358H0z"/></clipPath><clipPath id="b"><path fill="#fff" transform="translate(0 239.119)" d="M0 0h24v22.358H0z"/></clipPath><clipPath id="c"><path fill="#fff" d="M0 119.875h24v22.358H0z"/></clipPath><clipPath id="d"><path fill="#fff" transform="translate(0 .633)" d="M0 0h24v22.358H0z"/></clipPath><clipPath id="e"><path fill="#fff" transform="translate(0 60.254)" d="M0 0h24v22.358H0z"/></clipPath><clipPath id="f"><path fill="#fff" transform="translate(0 179.498)" d="M0 0h24v22.358H0z"/></clipPath></defs></svg>